<svg width="150" height="205" xmlns="http://www.w3.org/2000/svg" xmlns:xlink="http://www.w3.org/1999/xlink"><defs><rect id="a" width="14" height="14" rx="7"/><rect id="c" width="14" height="14" rx="7"/><rect id="e" width="14" height="14" rx="7"/><rect id="g" width="14" height="14" rx="7"/><rect id="i" width="14" height="14" rx="7"/></defs><g fill="none" fill-rule="evenodd"><path d="M135.837 133.07v-57a4 4 0 0 0-4-4H17.986a4 4 0 0 0-4 4v106.282M76 19v45M76 82v46" stroke="#C9C7C5" stroke-width="4"/><g transform="rotate(-45 82.542 -59.29)"><mask id="b" fill="#fff"><use xlink:href="#a"/></mask><use fill="#757575" xlink:href="#a"/><g mask="url(#b)" fill="#FFF" fill-rule="nonzero"><path d="M7.62 7.078l2.124-2.125a.235.235 0 0 0 0-.34l-.34-.34a.235.235 0 0 0-.341 0L6.939 6.396a.157.157 0 0 1-.227 0L4.587 4.256a.235.235 0 0 0-.34 0l-.34.34a.235.235 0 0 0 0 .341L6.03 7.061a.157.157 0 0 1 0 .227L3.89 9.428a.235.235 0 0 0 0 .341l.34.341a.235.235 0 0 0 .341 0l2.14-2.124a.157.157 0 0 1 .228 0l2.124 2.124a.235.235 0 0 0 .34 0l.341-.34a.235.235 0 0 0 0-.341L7.62 7.305a.195.195 0 0 1 0-.227z"/></g></g><g transform="rotate(-45 197.551 76.172)"><mask id="d" fill="#fff"><use xlink:href="#c"/></mask><use fill="#757575" xlink:href="#c"/><g mask="url(#d)" fill="#FFF" fill-rule="nonzero"><path d="M7.62 7.078l2.124-2.125a.235.235 0 0 0 0-.34l-.34-.34a.235.235 0 0 0-.341 0L6.939 6.396a.157.157 0 0 1-.227 0L4.587 4.256a.235.235 0 0 0-.34 0l-.34.34a.235.235 0 0 0 0 .341L6.03 7.061a.157.157 0 0 1 0 .227L3.89 9.428a.235.235 0 0 0 0 .341l.34.341a.235.235 0 0 0 .341 0l2.14-2.124a.157.157 0 0 1 .228 0l2.124 2.124a.235.235 0 0 0 .34 0l.341-.34a.235.235 0 0 0 0-.341L7.62 7.305a.195.195 0 0 1 0-.227z"/></g></g><g transform="rotate(-45 123.968 45.55)"><mask id="f" fill="#fff"><use xlink:href="#e"/></mask><use fill="#757575" xlink:href="#e"/><g mask="url(#f)" fill="#FFF" fill-rule="nonzero"><path d="M7.62 7.078l2.124-2.125a.235.235 0 0 0 0-.34l-.34-.34a.235.235 0 0 0-.341 0L6.939 6.396a.157.157 0 0 1-.227 0L4.587 4.256a.235.235 0 0 0-.34 0l-.34.34a.235.235 0 0 0 0 .341L6.03 7.061a.157.157 0 0 1 0 .227L3.89 9.428a.235.235 0 0 0 0 .341l.34.341a.235.235 0 0 0 .341 0l2.14-2.124a.157.157 0 0 1 .228 0l2.124 2.124a.235.235 0 0 0 .34 0l.341-.34a.235.235 0 0 0 0-.341L7.62 7.305a.195.195 0 0 1 0-.227z"/></g></g><g transform="rotate(-45 154.968 -29.29)"><mask id="h" fill="#fff"><use xlink:href="#g"/></mask><use fill="#757575" xlink:href="#g"/><g mask="url(#h)" fill="#FFF" fill-rule="nonzero"><path d="M7.62 7.078l2.124-2.125a.235.235 0 0 0 0-.34l-.34-.34a.235.235 0 0 0-.341 0L6.939 6.396a.157.157 0 0 1-.227 0L4.587 4.256a.235.235 0 0 0-.34 0l-.34.34a.235.235 0 0 0 0 .341L6.03 7.061a.157.157 0 0 1 0 .227L3.89 9.428a.235.235 0 0 0 0 .341l.34.341a.235.235 0 0 0 .341 0l2.14-2.124a.157.157 0 0 1 .228 0l2.124 2.124a.235.235 0 0 0 .34 0l.341-.34a.235.235 0 0 0 0-.341L7.62 7.305a.195.195 0 0 1 0-.227z"/></g></g><g transform="rotate(-45 184.968 -101.717)"><mask id="j" fill="#fff"><use xlink:href="#i"/></mask><use fill="#757575" xlink:href="#i"/><g mask="url(#j)" fill="#FFF" fill-rule="nonzero"><path d="M7.62 7.078l2.124-2.125a.235.235 0 0 0 0-.34l-.34-.34a.235.235 0 0 0-.341 0L6.939 6.396a.157.157 0 0 1-.227 0L4.587 4.256a.235.235 0 0 0-.34 0l-.34.34a.235.235 0 0 0 0 .341L6.03 7.061a.157.157 0 0 1 0 .227L3.89 9.428a.235.235 0 0 0 0 .341l.34.341a.235.235 0 0 0 .341 0l2.14-2.124a.157.157 0 0 1 .228 0l2.124 2.124a.235.235 0 0 0 .34 0l.341-.34a.235.235 0 0 0 0-.341L7.62 7.305a.195.195 0 0 1 0-.227z"/></g></g><rect fill="#00A1E0" x="62" y="119" width="27.673" height="27.716" rx="1"/><rect fill="#EA8288" x="122" y="119" width="27.673" height="27.716" rx="1"/><path d="M58.35 71.293l16.942-16.969a1 1 0 0 1 1.416 0l16.943 16.97a1 1 0 0 1 0 1.413L76.708 89.676a1 1 0 0 1-1.416 0L58.35 72.706a1 1 0 0 1 0-1.413z" fill="#F28B00"/><ellipse fill="#53B6B4" cx="75.98" cy="13" rx="12.98" ry="13"/><rect fill="#EA8288" y="119" width="27.673" height="27.716" rx="1"/><rect fill="#F28B00" y="177" width="27.673" height="27.716" rx="1"/></g></svg>