<svg width="150" height="205" xmlns="http://www.w3.org/2000/svg"><g fill="none" fill-rule="evenodd"><path d="M73.986 84.719v11.07a4 4 0 0 1-4 4h-52.15a4 4 0 0 0-4 4v42.409a4 4 0 0 0 4 4h46.17a4 4 0 0 1 4 4V177M73.986 86.942v51.916a4 4 0 0 0 4 4h25.812M89.971 70.596l9.8-.05a4 4 0 0 1 4.02 4V98.5a4 4 0 0 0 4 4h30.362M44.355 27.716l.04 13.58a4 4 0 0 0 4 3.989h21.591a4 4 0 0 1 4 4v5.18" stroke="#C9C7C5" stroke-width="4"/><rect fill="#00A1E0" x="97" y="129" width="27.673" height="27.716" rx="1"/><rect fill="#EA8288" x="122" y="90" width="27.673" height="27.716" rx="1"/><path d="M54.515 69.89l18.154-18.183a1 1 0 0 1 1.416 0L92.24 69.89a1 1 0 0 1 0 1.413L74.085 89.486a1 1 0 0 1-1.416 0L54.515 71.303a1 1 0 0 1 0-1.413z" fill="#F28B00"/><ellipse fill="#53B6B4" cx="44.406" cy="13.858" rx="13.837" ry="13.858"/><rect fill="#EA8288" y="111.89" width="27.673" height="27.716" rx="1"/><rect fill="#F28B00" x="54" y="177" width="27.673" height="27.716" rx="1"/></g></svg>