<svg id="Layer_1" xmlns="http://www.w3.org/2000/svg" viewBox="0 0 52 52"><style>.st0{fill:#fff}</style><path class="st0" d="M48.5 22.4l-6.8-6.8c.6-1.5.3-3.3-.9-4.5-1.6-1.6-4.3-1.6-6 0-1.6 1.6-1.6 4.3 0 6 1.2 1.2 3 1.5 4.5.9l6.8 6.8c.7.7.7 1.7 0 2.4L33.6 39.7c-.7.7-1.7.7-2.4 0l-3-3 9.5-9.5c.7-.7.7-1.8 0-2.5l-8.9-8.9-1.7-1.7-4.2-4.2c-2-2-5.2-2-7.2 0L3.2 22.4c-2 2-2 5.2 0 7.2l6.8 6.8c-.6 1.5-.3 3.3.9 4.5 1.6 1.6 4.3 1.6 6 0 1.6-1.6 1.6-4.3 0-6-1.2-1.2-3-1.5-4.5-.9l-6.8-6.8c-.7-.7-.7-1.7 0-2.4l12.5-12.5c.7-.7 1.7-.7 2.4 0l3 3-9.5 9.4c-.7.7-.7 1.8 0 2.5l8.9 8.9 1.7 1.7 4.2 4.2c2 2 5.2 2 7.2 0l12.5-12.5c2-1.9 2-5.1 0-7.1z"/></svg>